<svg width="24" height="24" viewBox="0 0 24 24" fill="none" xmlns="http://www.w3.org/2000/svg">
<rect width="24" height="24" fill="#1E1E1E"/>
<path d="M-10195 -4877C-10195 -4878.1 -10194.1 -4879 -10193 -4879H1720C1721.1 -4879 1722 -4878.1 1722 -4877V3690C1722 3691.1 1721.1 3692 1720 3692H-10193C-10194.1 3692 -10195 3691.1 -10195 3690V-4877Z" fill="#404040"/>
<path d="M-10193 -4878H1720V-4880H-10193V-4878ZM1721 -4877V3690H1723V-4877H1721ZM1720 3691H-10193V3693H1720V3691ZM-10194 3690V-4877H-10196V3690H-10194ZM-10193 3691C-10193.6 3691 -10194 3690.55 -10194 3690H-10196C-10196 3691.66 -10194.7 3693 -10193 3693V3691ZM1721 3690C1721 3690.55 1720.55 3691 1720 3691V3693C1721.66 3693 1723 3691.66 1723 3690H1721ZM1720 -4878C1720.55 -4878 1721 -4877.55 1721 -4877H1723C1723 -4878.66 1721.66 -4880 1720 -4880V-4878ZM-10193 -4880C-10194.7 -4880 -10196 -4878.66 -10196 -4877H-10194C-10194 -4877.55 -10193.6 -4878 -10193 -4878V-4880Z" fill="white" fill-opacity="0.1"/>
<g clip-path="url(#clip0_0_1)">
<rect width="2784" height="2313" transform="translate(-2189 -315)" fill="white"/>
<g clip-path="url(#clip1_0_1)">
<g clip-path="url(#clip2_0_1)">
<path d="M0 0.078125V23.9228H23.9976V0.078125H0ZM17.2629 3.18969C17.4372 3.18602 17.6187 3.19164 17.8063 3.20424C18.4958 3.20517 19.2158 3.26693 19.9301 3.3294L19.8525 6.15281H17.9337C17.0341 6.13302 16.7092 6.48013 16.68 7.48882V9.70679H19.9301L19.8012 12.731H16.68V21.1503H13.5089V12.731H11.3075V9.70679H13.5089V7.11043C13.5089 5.23844 14.3054 4.04691 15.8744 3.44292C16.2773 3.28539 16.7401 3.20072 17.2629 3.18969Z" fill="#A76E00"/>
</g>
</g>
</g>
<defs>
<clipPath id="clip0_0_1">
<rect width="2784" height="2313" fill="white" transform="translate(-2189 -315)"/>
</clipPath>
<clipPath id="clip1_0_1">
<rect width="582" height="110" fill="white" transform="translate(-281 -86)"/>
</clipPath>
<clipPath id="clip2_0_1">
<rect width="23.9976" height="23.8446" fill="white" transform="translate(0 0.078125)"/>
</clipPath>
</defs>
</svg>
