<svg width="24" height="24" viewBox="0 0 24 24" fill="none" xmlns="http://www.w3.org/2000/svg">
<rect width="24" height="24" fill="#1E1E1E"/>
<path d="M-10227 -4877C-10227 -4878.1 -10226.1 -4879 -10225 -4879H1688C1689.1 -4879 1690 -4878.1 1690 -4877V3690C1690 3691.1 1689.1 3692 1688 3692H-10225C-10226.1 3692 -10227 3691.1 -10227 3690V-4877Z" fill="#404040"/>
<path d="M-10225 -4878H1688V-4880H-10225V-4878ZM1689 -4877V3690H1691V-4877H1689ZM1688 3691H-10225V3693H1688V3691ZM-10226 3690V-4877H-10228V3690H-10226ZM-10225 3691C-10225.6 3691 -10226 3690.55 -10226 3690H-10228C-10228 3691.66 -10226.7 3693 -10225 3693V3691ZM1689 3690C1689 3690.55 1688.55 3691 1688 3691V3693C1689.66 3693 1691 3691.66 1691 3690H1689ZM1688 -4878C1688.55 -4878 1689 -4877.55 1689 -4877H1691C1691 -4878.66 1689.66 -4880 1688 -4880V-4878ZM-10225 -4880C-10226.7 -4880 -10228 -4878.66 -10228 -4877H-10226C-10226 -4877.55 -10225.6 -4878 -10225 -4878V-4880Z" fill="white" fill-opacity="0.1"/>
<g clip-path="url(#clip0_0_1)">
<rect width="2784" height="2313" transform="translate(-2221 -315)" fill="white"/>
<g clip-path="url(#clip1_0_1)">
<path d="M23.038 0H0.958047C0.427047 0 -0.00195312 0.429 -0.00195312 0.96V23.04C-0.00195312 23.571 0.427047 24 0.958047 24H23.038C23.569 24 23.998 23.571 23.998 23.04V0.96C23.998 0.429 23.569 0 23.038 0ZM18.457 8.691C18.466 8.832 18.466 8.979 18.466 9.123C18.466 13.527 15.112 18.6 8.98305 18.6C7.09305 18.6 5.34105 18.051 3.86505 17.106C4.13505 17.136 4.39305 17.148 4.66905 17.148C6.22905 17.148 7.66305 16.62 8.80605 15.726C7.34205 15.696 6.11205 14.736 5.69205 13.416C6.20505 13.491 6.66705 13.491 7.19505 13.356C6.44123 13.2029 5.76367 12.7934 5.2775 12.1974C4.79132 11.6013 4.52651 10.8552 4.52805 10.086V10.044C4.96905 10.293 5.48805 10.446 6.03105 10.467C5.57457 10.1628 5.20022 9.75063 4.94118 9.26709C4.68214 8.78355 4.54642 8.24356 4.54605 7.695C4.54605 7.074 4.70805 6.507 4.99905 6.015C5.83575 7.04501 6.87984 7.88743 8.06344 8.4875C9.24704 9.08757 10.5437 9.43186 11.869 9.498C11.398 7.233 13.09 5.4 15.124 5.4C16.084 5.4 16.948 5.802 17.557 6.45C18.31 6.309 19.03 6.027 19.672 5.649C19.423 6.42 18.901 7.071 18.208 7.482C18.88 7.41 19.528 7.224 20.128 6.963C19.675 7.629 19.108 8.22 18.457 8.691Z" fill="#A76E00"/>
</g>
</g>
<defs>
<clipPath id="clip0_0_1">
<rect width="2784" height="2313" fill="white" transform="translate(-2221 -315)"/>
</clipPath>
<clipPath id="clip1_0_1">
<rect width="582" height="110" fill="white" transform="translate(-313 -86)"/>
</clipPath>
</defs>
</svg>
