<svg width="180" height="120" viewBox="0 0 180 120" fill="none" xmlns="http://www.w3.org/2000/svg">
<g clip-path="url(#clip0_53_26430)">
<path d="M39.388 85.836C33.612 85.836 28.672 84.696 24.568 82.416C20.464 80.136 17.2973 76.944 15.068 72.84C12.8893 68.6853 11.8 63.796 11.8 58.172C11.8 53.9667 12.408 50.192 13.624 46.848C14.8907 43.4533 16.7147 40.5653 19.096 38.184C21.4773 35.752 24.3653 33.8773 27.76 32.56C31.2053 31.2427 35.0813 30.584 39.388 30.584C41.9213 30.584 44.48 30.9133 47.064 31.572C49.6987 32.18 51.9787 33.0667 53.904 34.232C55.1707 34.9413 56.032 35.828 56.488 36.892C56.944 37.956 57.0707 39.02 56.868 40.084C56.716 41.148 56.2853 42.06 55.576 42.82C54.9173 43.58 54.0813 44.0613 53.068 44.264C52.0547 44.4667 50.9147 44.2387 49.648 43.58C48.128 42.668 46.532 42.0093 44.86 41.604C43.188 41.1987 41.4907 40.996 39.768 40.996C36.3733 40.996 33.5107 41.68 31.18 43.048C28.9 44.3653 27.1773 46.2907 26.012 48.824C24.8467 51.3573 24.264 54.4733 24.264 58.172C24.264 61.82 24.8467 64.936 26.012 67.52C27.1773 70.104 28.9 72.08 31.18 73.448C33.5107 74.7653 36.3733 75.424 39.768 75.424C41.3893 75.424 43.036 75.2213 44.708 74.816C46.4307 74.4107 48.0773 73.7773 49.648 72.916C50.9653 72.2573 52.1307 72.0293 53.144 72.232C54.208 72.384 55.0693 72.84 55.728 73.6C56.4373 74.3093 56.868 75.1707 57.02 76.184C57.2227 77.1973 57.1213 78.2107 56.716 79.224C56.3107 80.2373 55.5507 81.0987 54.436 81.808C52.5613 83.0747 50.256 84.0627 47.52 84.772C44.784 85.4813 42.0733 85.836 39.388 85.836ZM71.5051 85C69.5291 85 68.0091 84.468 66.9451 83.404C65.8811 82.34 65.3491 80.82 65.3491 78.844V37.576C65.3491 35.6 65.8811 34.08 66.9451 33.016C68.0091 31.952 69.5291 31.42 71.5051 31.42H89.8971C93.6971 31.42 96.9398 31.9773 99.6251 33.092C102.31 34.2067 104.337 35.8027 105.705 37.88C107.124 39.9573 107.833 42.44 107.833 45.328C107.833 48.52 106.921 51.2307 105.097 53.46C103.273 55.6893 100.765 57.184 97.5731 57.944V56.728C101.272 57.3867 104.134 58.856 106.161 61.136C108.238 63.3653 109.277 66.2787 109.277 69.876C109.277 74.6387 107.63 78.3627 104.337 81.048C101.044 83.6827 96.5091 85 90.7331 85H71.5051ZM76.5971 76.26H89.1371C92.1771 76.26 94.4065 75.6773 95.8251 74.512C97.2438 73.296 97.9531 71.5227 97.9531 69.192C97.9531 66.8613 97.2438 65.1133 95.8251 63.948C94.4065 62.7827 92.1771 62.2 89.1371 62.2H76.5971V76.26ZM76.5971 53.46H87.8451C90.7838 53.46 92.9625 52.9027 94.3811 51.788C95.7998 50.6733 96.5091 49.0013 96.5091 46.772C96.5091 44.5933 95.7998 42.9467 94.3811 41.832C92.9625 40.7173 90.7838 40.16 87.8451 40.16H76.5971V53.46ZM124.349 85C122.373 85 120.853 84.468 119.789 83.404C118.725 82.34 118.193 80.82 118.193 78.844V37.576C118.193 35.6 118.725 34.08 119.789 33.016C120.853 31.952 122.373 31.42 124.349 31.42H139.169C148.34 31.42 155.408 33.7507 160.373 38.412C165.389 43.0227 167.897 49.6093 167.897 58.172C167.897 62.4787 167.238 66.304 165.921 69.648C164.654 72.9413 162.805 75.728 160.373 78.008C157.941 80.288 154.952 82.036 151.405 83.252C147.858 84.4173 143.78 85 139.169 85H124.349ZM129.973 75.348H138.485C141.373 75.348 143.881 74.9933 146.009 74.284C148.137 73.5747 149.91 72.5107 151.329 71.092C152.748 69.6733 153.812 67.9 154.521 65.772C155.23 63.5933 155.585 61.06 155.585 58.172C155.585 52.396 154.141 48.1147 151.253 45.328C148.416 42.4907 144.16 41.072 138.485 41.072H129.973V75.348Z" fill="#F8F1E9"/>
<path d="M15.08 100.09C14.5733 100.09 14.1067 100.03 13.68 99.91C13.2533 99.79 12.8867 99.6167 12.58 99.39C12.48 99.3233 12.4133 99.2433 12.38 99.15C12.3467 99.0567 12.34 98.9667 12.36 98.88C12.38 98.7933 12.42 98.7233 12.48 98.67C12.5467 98.61 12.6267 98.5767 12.72 98.57C12.8133 98.5567 12.9133 98.5833 13.02 98.65C13.2067 98.7767 13.4033 98.88 13.61 98.96C13.8167 99.04 14.0367 99.1 14.27 99.14C14.5033 99.18 14.75 99.2 15.01 99.2C15.4167 99.2 15.75 99.1567 16.01 99.07C16.27 98.9767 16.46 98.84 16.58 98.66C16.7067 98.48 16.77 98.2533 16.77 97.98C16.77 97.5933 16.65 97.3067 16.41 97.12C16.17 96.9333 15.8 96.84 15.3 96.84H13.96C13.8133 96.84 13.7 96.8067 13.62 96.74C13.5467 96.6667 13.51 96.56 13.51 96.42C13.51 96.2933 13.5467 96.1933 13.62 96.12C13.7 96.0467 13.8133 96.01 13.96 96.01H15.14C15.6267 96.01 15.99 95.9167 16.23 95.73C16.4767 95.5433 16.6 95.2667 16.6 94.9C16.6 94.6667 16.54 94.4633 16.42 94.29C16.3067 94.11 16.1333 93.9733 15.9 93.88C15.6667 93.7867 15.3733 93.74 15.02 93.74C14.7 93.74 14.3833 93.7833 14.07 93.87C13.7567 93.9567 13.47 94.0833 13.21 94.25C13.0967 94.3167 12.9933 94.3467 12.9 94.34C12.8067 94.3267 12.73 94.29 12.67 94.23C12.6167 94.17 12.58 94.0967 12.56 94.01C12.54 93.9167 12.5467 93.8267 12.58 93.74C12.62 93.6533 12.69 93.5767 12.79 93.51C13.11 93.29 13.47 93.1267 13.87 93.02C14.2767 92.9133 14.6933 92.86 15.12 92.86C15.68 92.86 16.1433 92.94 16.51 93.1C16.8833 93.26 17.1633 93.4867 17.35 93.78C17.5367 94.0667 17.63 94.4033 17.63 94.79C17.63 95.2167 17.5033 95.5767 17.25 95.87C16.9967 96.1633 16.6533 96.36 16.22 96.46V96.31C16.7133 96.3767 17.1 96.5633 17.38 96.87C17.66 97.17 17.8 97.5633 17.8 98.05C17.8 98.4633 17.7 98.8267 17.5 99.14C17.3067 99.4467 17.01 99.6833 16.61 99.85C16.21 100.01 15.7 100.09 15.08 100.09ZM20.297 101.87C20.177 101.87 20.077 101.837 19.997 101.77C19.9236 101.71 19.8803 101.627 19.867 101.52C19.8603 101.42 19.8803 101.31 19.927 101.19L20.607 99.66V100.09L18.737 95.74C18.6903 95.62 18.6736 95.5067 18.687 95.4C18.7003 95.2933 18.7503 95.21 18.837 95.15C18.9236 95.0833 19.0403 95.05 19.187 95.05C19.3136 95.05 19.4136 95.08 19.487 95.14C19.5603 95.2 19.627 95.3033 19.687 95.45L21.197 99.18H20.917L22.447 95.45C22.507 95.2967 22.577 95.1933 22.657 95.14C22.737 95.08 22.847 95.05 22.987 95.05C23.107 95.05 23.2003 95.0833 23.267 95.15C23.3403 95.21 23.3836 95.2933 23.397 95.4C23.417 95.5 23.4003 95.61 23.347 95.73L20.847 101.48C20.7803 101.633 20.7036 101.737 20.617 101.79C20.537 101.843 20.4303 101.87 20.297 101.87ZM26.5411 100.09C26.0411 100.09 25.6078 99.9867 25.2411 99.78C24.8811 99.5667 24.6011 99.27 24.4011 98.89C24.2011 98.5033 24.1011 98.05 24.1011 97.53C24.1011 97.1433 24.1578 96.7967 24.2711 96.49C24.3844 96.1767 24.5444 95.9133 24.7511 95.7C24.9644 95.4867 25.2211 95.3233 25.5211 95.21C25.8278 95.09 26.1678 95.03 26.5411 95.03C26.7744 95.03 27.0178 95.0667 27.2711 95.14C27.5311 95.2067 27.7711 95.32 27.9911 95.48C28.0778 95.5333 28.1311 95.6 28.1511 95.68C28.1778 95.7533 28.1811 95.83 28.1611 95.91C28.1478 95.99 28.1111 96.06 28.0511 96.12C27.9978 96.1733 27.9311 96.2067 27.8511 96.22C27.7711 96.2267 27.6844 96.2033 27.5911 96.15C27.4311 96.0367 27.2678 95.9567 27.1011 95.91C26.9344 95.8567 26.7744 95.83 26.6211 95.83C26.3811 95.83 26.1678 95.87 25.9811 95.95C25.8011 96.0233 25.6478 96.1333 25.5211 96.28C25.3944 96.42 25.2978 96.5967 25.2311 96.81C25.1711 97.0233 25.1411 97.2667 25.1411 97.54C25.1411 98.0867 25.2678 98.5167 25.5211 98.83C25.7811 99.1367 26.1478 99.29 26.6211 99.29C26.7744 99.29 26.9344 99.2667 27.1011 99.22C27.2678 99.1733 27.4311 99.0933 27.5911 98.98C27.6844 98.9267 27.7711 98.9067 27.8511 98.92C27.9311 98.9333 27.9944 98.97 28.0411 99.03C28.0944 99.0833 28.1278 99.15 28.1411 99.23C28.1611 99.3033 28.1578 99.38 28.1311 99.46C28.1044 99.54 28.0478 99.6067 27.9611 99.66C27.7478 99.8133 27.5144 99.9233 27.2611 99.99C27.0144 100.057 26.7744 100.09 26.5411 100.09ZM30.6963 100.07C30.5363 100.07 30.4096 100.027 30.3163 99.94C30.2296 99.8467 30.1863 99.72 30.1863 99.56V95.93H28.8263C28.5329 95.93 28.3862 95.7933 28.3862 95.52C28.3862 95.4 28.4263 95.3033 28.5063 95.23C28.5863 95.1567 28.6929 95.12 28.8263 95.12H32.5563C32.8496 95.12 32.9963 95.2533 32.9963 95.52C32.9963 95.6533 32.9563 95.7567 32.8763 95.83C32.8029 95.8967 32.6963 95.93 32.5563 95.93H31.1963V99.56C31.1963 99.72 31.1529 99.8467 31.0663 99.94C30.9863 100.027 30.8629 100.07 30.6963 100.07ZM34.2466 101.87C34.0866 101.87 33.9632 101.827 33.8766 101.74C33.7899 101.653 33.7466 101.527 33.7466 101.36V95.56C33.7466 95.3933 33.7899 95.2667 33.8766 95.18C33.9632 95.0933 34.0832 95.05 34.2366 95.05C34.3966 95.05 34.5199 95.0933 34.6066 95.18C34.6932 95.2667 34.7366 95.3933 34.7366 95.56V96.43L34.6266 96.22C34.7332 95.86 34.9432 95.5733 35.2566 95.36C35.5699 95.14 35.9399 95.03 36.3666 95.03C36.7999 95.03 37.1766 95.1333 37.4966 95.34C37.8232 95.5467 38.0732 95.8367 38.2466 96.21C38.4266 96.5833 38.5166 97.0333 38.5166 97.56C38.5166 98.0733 38.4266 98.5233 38.2466 98.91C38.0732 99.29 37.8266 99.5833 37.5066 99.79C37.1866 99.99 36.8066 100.09 36.3666 100.09C35.9466 100.09 35.5799 99.9833 35.2666 99.77C34.9532 99.5567 34.7432 99.2733 34.6366 98.92H34.7566V101.36C34.7566 101.527 34.7099 101.653 34.6166 101.74C34.5299 101.827 34.4066 101.87 34.2466 101.87ZM36.1166 99.31C36.3966 99.31 36.6399 99.2433 36.8466 99.11C37.0532 98.9767 37.2132 98.78 37.3266 98.52C37.4399 98.26 37.4966 97.94 37.4966 97.56C37.4966 96.9867 37.3699 96.5533 37.1166 96.26C36.8699 95.9667 36.5366 95.82 36.1166 95.82C35.8432 95.82 35.5999 95.8867 35.3866 96.02C35.1799 96.1467 35.0199 96.34 34.9066 96.6C34.7932 96.86 34.7366 97.18 34.7366 97.56C34.7366 98.1267 34.8632 98.56 35.1166 98.86C35.3699 99.16 35.7032 99.31 36.1166 99.31ZM40.2622 100.06C40.1022 100.06 39.9789 100.013 39.8922 99.92C39.8055 99.82 39.7622 99.6833 39.7622 99.51V95.61C39.7622 95.4367 39.8055 95.3033 39.8922 95.21C39.9789 95.1167 40.1022 95.07 40.2622 95.07C40.4222 95.07 40.5455 95.1167 40.6322 95.21C40.7255 95.3033 40.7722 95.4367 40.7722 95.61V99.51C40.7722 99.6833 40.7289 99.82 40.6422 99.92C40.5555 100.013 40.4289 100.06 40.2622 100.06ZM40.2622 94.03C40.0622 94.03 39.9055 93.98 39.7922 93.88C39.6855 93.78 39.6322 93.64 39.6322 93.46C39.6322 93.2733 39.6855 93.1333 39.7922 93.04C39.9055 92.94 40.0622 92.89 40.2622 92.89C40.4622 92.89 40.6155 92.94 40.7222 93.04C40.8355 93.1333 40.8922 93.2733 40.8922 93.46C40.8922 93.64 40.8355 93.78 40.7222 93.88C40.6155 93.98 40.4622 94.03 40.2622 94.03ZM45.9013 100.07C45.7346 100.07 45.6079 100.023 45.5213 99.93C45.4346 99.8367 45.3913 99.7033 45.3913 99.53V98.12C45.2113 98.22 45.0179 98.2967 44.8113 98.35C44.6113 98.4033 44.3979 98.43 44.1712 98.43C43.4646 98.43 42.9413 98.26 42.6013 97.92C42.2613 97.58 42.0913 97.0633 42.0913 96.37V95.56C42.0913 95.3933 42.1346 95.2667 42.2213 95.18C42.3079 95.0933 42.4313 95.05 42.5913 95.05C42.7513 95.05 42.8746 95.0933 42.9613 95.18C43.0546 95.2667 43.1013 95.3933 43.1013 95.56V96.29C43.1013 96.75 43.1946 97.0833 43.3813 97.29C43.5746 97.4967 43.8913 97.6 44.3313 97.6C44.5446 97.6 44.7346 97.5767 44.9013 97.53C45.0679 97.4767 45.2279 97.3967 45.3813 97.29V95.58C45.3813 95.2267 45.5513 95.05 45.8913 95.05C46.0579 95.05 46.1813 95.0967 46.2613 95.19C46.3479 95.2767 46.3913 95.4067 46.3913 95.58V99.53C46.3913 99.7033 46.3513 99.8367 46.2713 99.93C46.1913 100.023 46.0679 100.07 45.9013 100.07ZM48.4165 100.06C48.2565 100.06 48.1332 100.013 48.0465 99.92C47.9598 99.82 47.9165 99.6833 47.9165 99.51V95.61C47.9165 95.4367 47.9598 95.3033 48.0465 95.21C48.1332 95.1167 48.2565 95.07 48.4165 95.07C48.5765 95.07 48.6998 95.1167 48.7865 95.21C48.8798 95.3033 48.9265 95.4367 48.9265 95.61V99.51C48.9265 99.6833 48.8832 99.82 48.7965 99.92C48.7098 100.013 48.5832 100.06 48.4165 100.06ZM48.4165 94.03C48.2165 94.03 48.0598 93.98 47.9465 93.88C47.8398 93.78 47.7865 93.64 47.7865 93.46C47.7865 93.2733 47.8398 93.1333 47.9465 93.04C48.0598 92.94 48.2165 92.89 48.4165 92.89C48.6165 92.89 48.7698 92.94 48.8765 93.04C48.9898 93.1333 49.0465 93.2733 49.0465 93.46C49.0465 93.64 48.9898 93.78 48.8765 93.88C48.7698 93.98 48.6165 94.03 48.4165 94.03ZM54.6123 100.07C54.4523 100.07 54.3256 100.027 54.2323 99.94C54.1456 99.8467 54.1023 99.72 54.1023 99.56V95.93H52.7423C52.4489 95.93 52.3023 95.7933 52.3023 95.52C52.3023 95.4 52.3423 95.3033 52.4223 95.23C52.5023 95.1567 52.6089 95.12 52.7423 95.12H56.4723C56.7656 95.12 56.9123 95.2533 56.9123 95.52C56.9123 95.6533 56.8723 95.7567 56.7923 95.83C56.7189 95.8967 56.6123 95.93 56.4723 95.93H55.1123V99.56C55.1123 99.72 55.0689 99.8467 54.9823 99.94C54.9023 100.027 54.7789 100.07 54.6123 100.07ZM59.2226 100.09C58.8826 100.09 58.5759 100.023 58.3026 99.89C58.0359 99.7567 57.8259 99.5767 57.6726 99.35C57.5192 99.1233 57.4426 98.8667 57.4426 98.58C57.4426 98.22 57.5326 97.9367 57.7126 97.73C57.8992 97.5167 58.2026 97.3667 58.6226 97.28C59.0492 97.1867 59.6226 97.14 60.3426 97.14H60.8126V97.76H60.3526C59.8726 97.76 59.4926 97.7833 59.2126 97.83C58.9326 97.8767 58.7326 97.9567 58.6126 98.07C58.4992 98.1767 58.4426 98.3267 58.4426 98.52C58.4426 98.7733 58.5292 98.98 58.7026 99.14C58.8759 99.2933 59.1159 99.37 59.4226 99.37C59.6692 99.37 59.8859 99.3133 60.0726 99.2C60.2592 99.08 60.4059 98.92 60.5126 98.72C60.6259 98.52 60.6826 98.29 60.6826 98.03V96.88C60.6826 96.5 60.6026 96.2267 60.4426 96.06C60.2826 95.8933 60.0192 95.81 59.6526 95.81C59.4392 95.81 59.2159 95.8367 58.9826 95.89C58.7559 95.9433 58.5192 96.0333 58.2726 96.16C58.1592 96.2133 58.0626 96.23 57.9826 96.21C57.9026 96.19 57.8392 96.1467 57.7926 96.08C57.7459 96.0067 57.7192 95.93 57.7126 95.85C57.7126 95.7633 57.7326 95.68 57.7726 95.6C57.8192 95.52 57.8959 95.46 58.0026 95.42C58.2959 95.28 58.5859 95.18 58.8726 95.12C59.1592 95.06 59.4292 95.03 59.6826 95.03C60.1292 95.03 60.4959 95.1 60.7826 95.24C61.0759 95.38 61.2926 95.5933 61.4326 95.88C61.5726 96.1667 61.6426 96.5367 61.6426 96.99V99.56C61.6426 99.72 61.6026 99.8467 61.5226 99.94C61.4426 100.027 61.3259 100.07 61.1726 100.07C61.0259 100.07 60.9092 100.027 60.8226 99.94C60.7359 99.8467 60.6926 99.72 60.6926 99.56V98.91H60.7826C60.7292 99.1567 60.6292 99.37 60.4826 99.55C60.3426 99.7233 60.1659 99.8567 59.9526 99.95C59.7392 100.043 59.4959 100.09 59.2226 100.09ZM66.2876 100.06C66.1276 100.06 66.0042 100.013 65.9176 99.92C65.8309 99.82 65.7876 99.6833 65.7876 99.51V95.61C65.7876 95.4367 65.8309 95.3033 65.9176 95.21C66.0042 95.1167 66.1276 95.07 66.2876 95.07C66.4476 95.07 66.5709 95.1167 66.6576 95.21C66.7509 95.3033 66.7976 95.4367 66.7976 95.61V99.51C66.7976 99.6833 66.7542 99.82 66.6676 99.92C66.5809 100.013 66.4542 100.06 66.2876 100.06ZM66.2876 94.03C66.0876 94.03 65.9309 93.98 65.8176 93.88C65.7109 93.78 65.6576 93.64 65.6576 93.46C65.6576 93.2733 65.7109 93.1333 65.8176 93.04C65.9309 92.94 66.0876 92.89 66.2876 92.89C66.4876 92.89 66.6409 92.94 66.7476 93.04C66.8609 93.1333 66.9176 93.2733 66.9176 93.46C66.9176 93.64 66.8609 93.78 66.7476 93.88C66.6409 93.98 66.4876 94.03 66.2876 94.03ZM68.8266 100.07C68.6666 100.07 68.54 100.027 68.4466 99.94C68.36 99.8467 68.3166 99.72 68.3166 99.56V95.56C68.3166 95.3867 68.36 95.26 68.4466 95.18C68.54 95.0933 68.6666 95.05 68.8266 95.05C68.9866 95.05 69.11 95.0933 69.1966 95.18C69.2833 95.26 69.3266 95.3867 69.3266 95.56V97.09H71.7566V95.56C71.7566 95.3867 71.7966 95.26 71.8766 95.18C71.9633 95.0933 72.09 95.05 72.2566 95.05C72.4166 95.05 72.54 95.0933 72.6266 95.18C72.72 95.26 72.7666 95.3867 72.7666 95.56V99.56C72.7666 99.72 72.72 99.8467 72.6266 99.94C72.54 100.027 72.4166 100.07 72.2566 100.07C72.09 100.07 71.9633 100.027 71.8766 99.94C71.7966 99.8467 71.7566 99.72 71.7566 99.56V97.89H69.3266V99.56C69.3266 99.72 69.2833 99.8467 69.1966 99.94C69.1166 100.027 68.9933 100.07 68.8266 100.07ZM74.2137 101.37C74.0803 101.37 73.9737 101.33 73.8937 101.25C73.8137 101.17 73.7737 101.057 73.7737 100.91V99.68C73.7737 99.36 73.937 99.2 74.2637 99.2H74.7737L74.1737 99.41C74.3537 99.17 74.497 98.9167 74.6037 98.65C74.7103 98.3833 74.787 98.08 74.8337 97.74C74.887 97.3933 74.9137 96.9933 74.9137 96.54V95.69C74.9137 95.51 74.9603 95.37 75.0537 95.27C75.1537 95.17 75.297 95.12 75.4837 95.12H77.9537C78.1337 95.12 78.2737 95.17 78.3737 95.27C78.4737 95.37 78.5237 95.51 78.5237 95.69V99.67L78.0537 99.2H78.8237C78.977 99.2 79.0937 99.24 79.1737 99.32C79.2603 99.4 79.3037 99.52 79.3037 99.68V100.91C79.3037 101.217 79.1603 101.37 78.8737 101.37C78.7337 101.37 78.627 101.33 78.5537 101.25C78.4803 101.17 78.4437 101.057 78.4437 100.91V100H74.6437V100.91C74.6437 101.217 74.5003 101.37 74.2137 101.37ZM75.2537 99.2H77.5637V95.91H75.7937V96.75C75.7937 97.21 75.747 97.6567 75.6537 98.09C75.5603 98.5233 75.427 98.8933 75.2537 99.2ZM80.7788 100.07C80.6788 100.07 80.5922 100.05 80.5188 100.01C80.4522 99.9767 80.3988 99.92 80.3588 99.84C80.3255 99.76 80.3088 99.6567 80.3088 99.53V95.54C80.3088 95.38 80.3488 95.26 80.4288 95.18C80.5088 95.0933 80.6222 95.05 80.7688 95.05C80.9155 95.05 81.0288 95.0933 81.1088 95.18C81.1888 95.26 81.2288 95.38 81.2288 95.54V99H80.9688L83.6788 95.38C83.7455 95.2933 83.8222 95.2167 83.9088 95.15C83.9955 95.0833 84.1122 95.05 84.2588 95.05C84.3588 95.05 84.4422 95.07 84.5088 95.11C84.5755 95.1433 84.6255 95.2 84.6588 95.28C84.6988 95.36 84.7188 95.4633 84.7188 95.59V99.58C84.7188 99.7333 84.6788 99.8533 84.5988 99.94C84.5255 100.027 84.4155 100.07 84.2688 100.07C84.1155 100.07 83.9988 100.027 83.9188 99.94C83.8388 99.8533 83.7988 99.7333 83.7988 99.58V96.12H84.0688L81.3488 99.75C81.2888 99.83 81.2155 99.9033 81.1288 99.97C81.0488 100.037 80.9322 100.07 80.7788 100.07ZM86.7466 100C86.5799 100 86.4532 99.9567 86.3666 99.87C86.2799 99.7767 86.2366 99.65 86.2366 99.49V95.64C86.2366 95.4733 86.2799 95.3467 86.3666 95.26C86.4532 95.1667 86.5799 95.12 86.7466 95.12H88.7266C89.1266 95.12 89.4532 95.17 89.7066 95.27C89.9666 95.37 90.1566 95.5167 90.2766 95.71C90.3966 95.8967 90.4566 96.1267 90.4566 96.4C90.4566 96.7133 90.3499 96.9767 90.1366 97.19C89.9232 97.3967 89.6432 97.52 89.2966 97.56V97.43C89.7166 97.45 90.0399 97.57 90.2666 97.79C90.4999 98.01 90.6166 98.2933 90.6166 98.64C90.6166 99.06 90.4599 99.3933 90.1466 99.64C89.8332 99.88 89.3866 100 88.8066 100H86.7466ZM87.1866 99.35H88.7466C89.0466 99.35 89.2766 99.2867 89.4366 99.16C89.6032 99.0267 89.6866 98.8367 89.6866 98.59C89.6866 98.3433 89.6032 98.1567 89.4366 98.03C89.2766 97.9033 89.0466 97.84 88.7466 97.84H87.1866V99.35ZM87.1866 97.19H88.6566C88.9299 97.19 89.1399 97.1267 89.2866 97C89.4399 96.8733 89.5166 96.7 89.5166 96.48C89.5166 96.2533 89.4399 96.08 89.2866 95.96C89.1399 95.84 88.9299 95.78 88.6566 95.78H87.1866V97.19ZM92.3032 100.06C92.1432 100.06 92.0199 100.013 91.9332 99.92C91.8465 99.82 91.8032 99.6833 91.8032 99.51V95.61C91.8032 95.4367 91.8465 95.3033 91.9332 95.21C92.0199 95.1167 92.1432 95.07 92.3032 95.07C92.4632 95.07 92.5865 95.1167 92.6732 95.21C92.7665 95.3033 92.8132 95.4367 92.8132 95.61V99.51C92.8132 99.6833 92.7699 99.82 92.6832 99.92C92.5965 100.013 92.4699 100.06 92.3032 100.06ZM92.3032 94.03C92.1032 94.03 91.9465 93.98 91.8332 93.88C91.7265 93.78 91.6732 93.64 91.6732 93.46C91.6732 93.2733 91.7265 93.1333 91.8332 93.04C91.9465 92.94 92.1032 92.89 92.3032 92.89C92.5032 92.89 92.6565 92.94 92.7632 93.04C92.8765 93.1333 92.9332 93.2733 92.9332 93.46C92.9332 93.64 92.8765 93.78 92.7632 93.88C92.6565 93.98 92.5032 94.03 92.3032 94.03ZM94.2723 101.37C94.1389 101.37 94.0323 101.33 93.9523 101.25C93.8723 101.17 93.8323 101.057 93.8323 100.91V99.68C93.8323 99.36 93.9956 99.2 94.3223 99.2H94.8323L94.2323 99.41C94.4123 99.17 94.5556 98.9167 94.6623 98.65C94.7689 98.3833 94.8456 98.08 94.8923 97.74C94.9456 97.3933 94.9723 96.9933 94.9723 96.54V95.69C94.9723 95.51 95.0189 95.37 95.1123 95.27C95.2123 95.17 95.3556 95.12 95.5423 95.12H98.0123C98.1923 95.12 98.3323 95.17 98.4323 95.27C98.5323 95.37 98.5823 95.51 98.5823 95.69V99.67L98.1123 99.2H98.8823C99.0356 99.2 99.1523 99.24 99.2323 99.32C99.3189 99.4 99.3623 99.52 99.3623 99.68V100.91C99.3623 101.217 99.2189 101.37 98.9323 101.37C98.7923 101.37 98.6856 101.33 98.6123 101.25C98.5389 101.17 98.5023 101.057 98.5023 100.91V100H94.7023V100.91C94.7023 101.217 94.5589 101.37 94.2723 101.37ZM95.3123 99.2H97.6223V95.91H95.8523V96.75C95.8523 97.21 95.8056 97.6567 95.7123 98.09C95.6189 98.5233 95.4856 98.8933 95.3123 99.2ZM101.527 101.87C101.407 101.87 101.307 101.837 101.227 101.77C101.154 101.71 101.111 101.627 101.097 101.52C101.091 101.42 101.111 101.31 101.157 101.19L101.837 99.66V100.09L99.9674 95.74C99.9208 95.62 99.9041 95.5067 99.9174 95.4C99.9308 95.2933 99.9808 95.21 100.067 95.15C100.154 95.0833 100.271 95.05 100.417 95.05C100.544 95.05 100.644 95.08 100.717 95.14C100.791 95.2 100.857 95.3033 100.917 95.45L102.427 99.18H102.147L103.677 95.45C103.737 95.2967 103.807 95.1933 103.887 95.14C103.967 95.08 104.077 95.05 104.217 95.05C104.337 95.05 104.431 95.0833 104.497 95.15C104.571 95.21 104.614 95.2933 104.627 95.4C104.647 95.5 104.631 95.61 104.577 95.73L102.077 101.48C102.011 101.633 101.934 101.737 101.847 101.79C101.767 101.843 101.661 101.87 101.527 101.87ZM107.162 100.09C106.822 100.09 106.515 100.023 106.242 99.89C105.975 99.7567 105.765 99.5767 105.612 99.35C105.459 99.1233 105.382 98.8667 105.382 98.58C105.382 98.22 105.472 97.9367 105.652 97.73C105.839 97.5167 106.142 97.3667 106.562 97.28C106.989 97.1867 107.562 97.14 108.282 97.14H108.752V97.76H108.292C107.812 97.76 107.432 97.7833 107.152 97.83C106.872 97.8767 106.672 97.9567 106.552 98.07C106.439 98.1767 106.382 98.3267 106.382 98.52C106.382 98.7733 106.469 98.98 106.642 99.14C106.815 99.2933 107.055 99.37 107.362 99.37C107.609 99.37 107.825 99.3133 108.012 99.2C108.199 99.08 108.345 98.92 108.452 98.72C108.565 98.52 108.622 98.29 108.622 98.03V96.88C108.622 96.5 108.542 96.2267 108.382 96.06C108.222 95.8933 107.959 95.81 107.592 95.81C107.379 95.81 107.155 95.8367 106.922 95.89C106.695 95.9433 106.459 96.0333 106.212 96.16C106.099 96.2133 106.002 96.23 105.922 96.21C105.842 96.19 105.779 96.1467 105.732 96.08C105.685 96.0067 105.659 95.93 105.652 95.85C105.652 95.7633 105.672 95.68 105.712 95.6C105.759 95.52 105.835 95.46 105.942 95.42C106.235 95.28 106.525 95.18 106.812 95.12C107.099 95.06 107.369 95.03 107.622 95.03C108.069 95.03 108.435 95.1 108.722 95.24C109.015 95.38 109.232 95.5933 109.372 95.88C109.512 96.1667 109.582 96.5367 109.582 96.99V99.56C109.582 99.72 109.542 99.8467 109.462 99.94C109.382 100.027 109.265 100.07 109.112 100.07C108.965 100.07 108.849 100.027 108.762 99.94C108.675 99.8467 108.632 99.72 108.632 99.56V98.91H108.722C108.669 99.1567 108.569 99.37 108.422 99.55C108.282 99.7233 108.105 99.8567 107.892 99.95C107.679 100.043 107.435 100.09 107.162 100.09ZM114.9 100.07C114.74 100.07 114.617 100.027 114.53 99.94C114.444 99.8467 114.4 99.72 114.4 99.56V95.93H112.63V96.52C112.63 97.0133 112.604 97.4533 112.55 97.84C112.497 98.22 112.414 98.55 112.3 98.83C112.187 99.11 112.04 99.3467 111.86 99.54C111.68 99.7333 111.46 99.89 111.2 100.01C111.087 100.057 110.984 100.07 110.89 100.05C110.797 100.03 110.717 99.99 110.65 99.93C110.59 99.8633 110.55 99.7867 110.53 99.7C110.51 99.6133 110.52 99.5267 110.56 99.44C110.6 99.3467 110.674 99.27 110.78 99.21C110.96 99.11 111.107 98.9833 111.22 98.83C111.34 98.6767 111.434 98.4933 111.5 98.28C111.567 98.06 111.614 97.8033 111.64 97.51C111.674 97.2167 111.69 96.8767 111.69 96.49V95.69C111.69 95.51 111.737 95.37 111.83 95.27C111.93 95.17 112.074 95.12 112.26 95.12H114.84C115.02 95.12 115.16 95.17 115.26 95.27C115.36 95.37 115.41 95.51 115.41 95.69V99.56C115.41 99.72 115.364 99.8467 115.27 99.94C115.184 100.027 115.06 100.07 114.9 100.07ZM117.44 100C117.273 100 117.147 99.9567 117.06 99.87C116.973 99.7767 116.93 99.65 116.93 99.49V95.56C116.93 95.3867 116.973 95.26 117.06 95.18C117.153 95.0933 117.28 95.05 117.44 95.05C117.6 95.05 117.723 95.0933 117.81 95.18C117.897 95.26 117.94 95.3867 117.94 95.56V96.81H119.33C119.957 96.81 120.433 96.9467 120.76 97.22C121.087 97.4867 121.25 97.8767 121.25 98.39C121.25 98.7167 121.173 99.0033 121.02 99.25C120.867 99.49 120.647 99.6767 120.36 99.81C120.073 99.9367 119.73 100 119.33 100H117.44ZM117.94 99.31H119.2C119.547 99.31 119.817 99.2367 120.01 99.09C120.203 98.9367 120.3 98.7033 120.3 98.39C120.3 98.0833 120.203 97.86 120.01 97.72C119.817 97.5733 119.547 97.5 119.2 97.5H117.94V99.31ZM122.879 100.07C122.719 100.07 122.593 100.027 122.499 99.94C122.413 99.8467 122.369 99.72 122.369 99.56V95.56C122.369 95.3867 122.413 95.26 122.499 95.18C122.593 95.0933 122.719 95.05 122.879 95.05C123.039 95.05 123.163 95.0933 123.249 95.18C123.336 95.26 123.379 95.3867 123.379 95.56V97.09H125.809V95.56C125.809 95.3867 125.849 95.26 125.929 95.18C126.016 95.0933 126.143 95.05 126.309 95.05C126.469 95.05 126.593 95.0933 126.679 95.18C126.773 95.26 126.819 95.3867 126.819 95.56V99.56C126.819 99.72 126.773 99.8467 126.679 99.94C126.593 100.027 126.469 100.07 126.309 100.07C126.143 100.07 126.016 100.027 125.929 99.94C125.849 99.8467 125.809 99.72 125.809 99.56V97.89H123.379V99.56C123.379 99.72 123.336 99.8467 123.249 99.94C123.169 100.027 123.046 100.07 122.879 100.07ZM128.836 100.06C128.676 100.06 128.553 100.013 128.466 99.92C128.38 99.82 128.336 99.6833 128.336 99.51V95.61C128.336 95.4367 128.38 95.3033 128.466 95.21C128.553 95.1167 128.676 95.07 128.836 95.07C128.996 95.07 129.12 95.1167 129.206 95.21C129.3 95.3033 129.346 95.4367 129.346 95.61V99.51C129.346 99.6833 129.303 99.82 129.216 99.92C129.13 100.013 129.003 100.06 128.836 100.06ZM128.836 94.03C128.636 94.03 128.48 93.98 128.366 93.88C128.26 93.78 128.206 93.64 128.206 93.46C128.206 93.2733 128.26 93.1333 128.366 93.04C128.48 92.94 128.636 92.89 128.836 92.89C129.036 92.89 129.19 92.94 129.296 93.04C129.41 93.1333 129.466 93.2733 129.466 93.46C129.466 93.64 129.41 93.78 129.296 93.88C129.19 93.98 129.036 94.03 128.836 94.03ZM135.202 100.09C134.862 100.09 134.529 100.057 134.202 99.99C133.876 99.9167 133.592 99.81 133.352 99.67C133.252 99.6167 133.182 99.5533 133.142 99.48C133.102 99.4 133.086 99.32 133.092 99.24C133.099 99.1533 133.126 99.0833 133.172 99.03C133.226 98.97 133.292 98.9333 133.372 98.92C133.459 98.9067 133.559 98.93 133.672 98.99C133.886 99.11 134.126 99.2 134.392 99.26C134.659 99.3133 134.922 99.34 135.182 99.34C135.636 99.34 135.959 99.28 136.152 99.16C136.352 99.0333 136.452 98.8467 136.452 98.6C136.452 98.3733 136.372 98.2 136.212 98.08C136.052 97.96 135.826 97.9 135.532 97.9H134.652C134.526 97.9 134.426 97.8667 134.352 97.8C134.279 97.7333 134.242 97.6433 134.242 97.53C134.242 97.41 134.279 97.32 134.352 97.26C134.426 97.1933 134.526 97.16 134.652 97.16H135.422C135.682 97.16 135.889 97.1033 136.042 96.99C136.202 96.87 136.282 96.7067 136.282 96.5C136.282 96.2733 136.196 96.0967 136.022 95.97C135.849 95.8433 135.556 95.78 135.142 95.78C134.896 95.78 134.656 95.8067 134.422 95.86C134.189 95.9133 133.966 95.9933 133.752 96.1C133.612 96.1667 133.496 96.1833 133.402 96.15C133.309 96.1167 133.239 96.0567 133.192 95.97C133.152 95.8767 133.149 95.7833 133.182 95.69C133.216 95.59 133.292 95.51 133.412 95.45C133.686 95.3033 133.979 95.1967 134.292 95.13C134.606 95.0633 134.939 95.03 135.292 95.03C135.926 95.03 136.402 95.1533 136.722 95.4C137.049 95.64 137.212 95.9733 137.212 96.4C137.212 96.7133 137.106 96.9767 136.892 97.19C136.686 97.3967 136.409 97.52 136.062 97.56V97.43C136.469 97.45 136.792 97.57 137.032 97.79C137.272 98.0033 137.392 98.2867 137.392 98.64C137.392 99.08 137.206 99.4333 136.832 99.7C136.459 99.96 135.916 100.09 135.202 100.09ZM140.15 100.09C139.81 100.09 139.504 100.023 139.23 99.89C138.964 99.7567 138.754 99.5767 138.6 99.35C138.447 99.1233 138.37 98.8667 138.37 98.58C138.37 98.22 138.46 97.9367 138.64 97.73C138.827 97.5167 139.13 97.3667 139.55 97.28C139.977 97.1867 140.55 97.14 141.27 97.14H141.74V97.76H141.28C140.8 97.76 140.42 97.7833 140.14 97.83C139.86 97.8767 139.66 97.9567 139.54 98.07C139.427 98.1767 139.37 98.3267 139.37 98.52C139.37 98.7733 139.457 98.98 139.63 99.14C139.804 99.2933 140.044 99.37 140.35 99.37C140.597 99.37 140.814 99.3133 141 99.2C141.187 99.08 141.334 98.92 141.44 98.72C141.554 98.52 141.61 98.29 141.61 98.03V96.88C141.61 96.5 141.53 96.2267 141.37 96.06C141.21 95.8933 140.947 95.81 140.58 95.81C140.367 95.81 140.144 95.8367 139.91 95.89C139.684 95.9433 139.447 96.0333 139.2 96.16C139.087 96.2133 138.99 96.23 138.91 96.21C138.83 96.19 138.767 96.1467 138.72 96.08C138.674 96.0067 138.647 95.93 138.64 95.85C138.64 95.7633 138.66 95.68 138.7 95.6C138.747 95.52 138.824 95.46 138.93 95.42C139.224 95.28 139.514 95.18 139.8 95.12C140.087 95.06 140.357 95.03 140.61 95.03C141.057 95.03 141.424 95.1 141.71 95.24C142.004 95.38 142.22 95.5933 142.36 95.88C142.5 96.1667 142.57 96.5367 142.57 96.99V99.56C142.57 99.72 142.53 99.8467 142.45 99.94C142.37 100.027 142.254 100.07 142.1 100.07C141.954 100.07 141.837 100.027 141.75 99.94C141.664 99.8467 141.62 99.72 141.62 99.56V98.91H141.71C141.657 99.1567 141.557 99.37 141.41 99.55C141.27 99.7233 141.094 99.8567 140.88 99.95C140.667 100.043 140.424 100.09 140.15 100.09ZM144.249 100.06C144.129 100.06 144.029 100.027 143.949 99.96C143.875 99.8867 143.835 99.7967 143.829 99.69C143.829 99.5833 143.875 99.4667 143.969 99.34L145.659 97.23V97.73L144.079 95.76C143.972 95.64 143.922 95.5267 143.929 95.42C143.935 95.3067 143.979 95.2167 144.059 95.15C144.139 95.0833 144.235 95.05 144.349 95.05C144.475 95.05 144.579 95.0733 144.659 95.12C144.745 95.16 144.825 95.23 144.899 95.33L146.229 97.02H145.869L147.209 95.33C147.282 95.23 147.359 95.16 147.439 95.12C147.525 95.0733 147.629 95.05 147.749 95.05C147.869 95.05 147.965 95.0867 148.039 95.16C148.119 95.2267 148.159 95.3167 148.159 95.43C148.165 95.5367 148.119 95.65 148.019 95.77L146.439 97.71V97.26L148.129 99.34C148.229 99.46 148.275 99.5767 148.269 99.69C148.269 99.7967 148.229 99.8867 148.149 99.96C148.069 100.027 147.969 100.06 147.849 100.06C147.729 100.06 147.625 100.037 147.539 99.99C147.459 99.9433 147.379 99.8733 147.299 99.78L145.869 97.98H146.209L144.789 99.78C144.715 99.8667 144.635 99.9367 144.549 99.99C144.469 100.037 144.369 100.06 144.249 100.06ZM151.56 100.09C151.067 100.09 150.64 99.9867 150.28 99.78C149.927 99.5733 149.65 99.28 149.45 98.9C149.25 98.52 149.15 98.0733 149.15 97.56C149.15 97.1667 149.207 96.8167 149.32 96.51C149.433 96.2033 149.593 95.94 149.8 95.72C150.013 95.4933 150.267 95.3233 150.56 95.21C150.86 95.09 151.193 95.03 151.56 95.03C152.047 95.03 152.467 95.1333 152.82 95.34C153.18 95.5467 153.46 95.84 153.66 96.22C153.86 96.5933 153.96 97.04 153.96 97.56C153.96 97.9467 153.903 98.2967 153.79 98.61C153.677 98.9233 153.513 99.19 153.3 99.41C153.093 99.63 152.84 99.8 152.54 99.92C152.247 100.033 151.92 100.09 151.56 100.09ZM151.56 99.31C151.833 99.31 152.073 99.2433 152.28 99.11C152.487 98.9767 152.647 98.78 152.76 98.52C152.88 98.26 152.94 97.94 152.94 97.56C152.94 96.9867 152.813 96.5533 152.56 96.26C152.307 95.9667 151.973 95.82 151.56 95.82C151.28 95.82 151.037 95.8867 150.83 96.02C150.623 96.1467 150.46 96.34 150.34 96.6C150.227 96.86 150.17 97.18 150.17 97.56C150.17 98.1267 150.297 98.56 150.55 98.86C150.803 99.16 151.14 99.31 151.56 99.31ZM155.141 101.37C155.008 101.37 154.901 101.33 154.821 101.25C154.741 101.17 154.701 101.057 154.701 100.91V99.68C154.701 99.36 154.865 99.2 155.191 99.2H155.701L155.101 99.41C155.281 99.17 155.425 98.9167 155.531 98.65C155.638 98.3833 155.715 98.08 155.761 97.74C155.815 97.3933 155.841 96.9933 155.841 96.54V95.69C155.841 95.51 155.888 95.37 155.981 95.27C156.081 95.17 156.225 95.12 156.411 95.12H158.881C159.061 95.12 159.201 95.17 159.301 95.27C159.401 95.37 159.451 95.51 159.451 95.69V99.67L158.981 99.2H159.751C159.905 99.2 160.021 99.24 160.101 99.32C160.188 99.4 160.231 99.52 160.231 99.68V100.91C160.231 101.217 160.088 101.37 159.801 101.37C159.661 101.37 159.555 101.33 159.481 101.25C159.408 101.17 159.371 101.057 159.371 100.91V100H155.571V100.91C155.571 101.217 155.428 101.37 155.141 101.37ZM156.181 99.2H158.491V95.91H156.721V96.75C156.721 97.21 156.675 97.6567 156.581 98.09C156.488 98.5233 156.355 98.8933 156.181 99.2ZM161.707 100.07C161.607 100.07 161.52 100.05 161.447 100.01C161.38 99.9767 161.327 99.92 161.287 99.84C161.253 99.76 161.237 99.6567 161.237 99.53V95.54C161.237 95.38 161.277 95.26 161.357 95.18C161.437 95.0933 161.55 95.05 161.697 95.05C161.843 95.05 161.957 95.0933 162.037 95.18C162.117 95.26 162.157 95.38 162.157 95.54V99H161.897L164.607 95.38C164.673 95.2933 164.75 95.2167 164.837 95.15C164.923 95.0833 165.04 95.05 165.187 95.05C165.287 95.05 165.37 95.07 165.437 95.11C165.503 95.1433 165.553 95.2 165.587 95.28C165.627 95.36 165.647 95.4633 165.647 95.59V99.58C165.647 99.7333 165.607 99.8533 165.527 99.94C165.453 100.027 165.343 100.07 165.197 100.07C165.043 100.07 164.927 100.027 164.847 99.94C164.767 99.8533 164.727 99.7333 164.727 99.58V96.12H164.997L162.277 99.75C162.217 99.83 162.143 99.9033 162.057 99.97C161.977 100.037 161.86 100.07 161.707 100.07Z" fill="#F8F1E9"/>
</g>
<defs>
<clipPath id="clip0_53_26430">
<rect width="180" height="120" fill="white"/>
</clipPath>
</defs>
</svg>
